0
SECTION
2
HEADER
9
$INSUNITS
70
4
9
$ACADVER
1
AC1014
9
$HANDSEED
5
FFFF
0
ENDSEC
0
SECTION
2
TABLES
0
TABLE
2
VPORT
5
8
100
AcDbSymbolTable
0
ENDTAB
0
TABLE
2
LTYPE
5
5
100
AcDbSymbolTable
0
LTYPE
5
14
100
AcDbSymbolTableRecord
100
AcDbLinetypeTableRecord
2
BYBLOCK
70
0
0
LTYPE
5
15
100
AcDbSymbolTableRecord
100
AcDbLinetypeTableRecord
2
BYLAYER
70
0
0
ENDTAB
0
TABLE
2
LAYER
5
2
100
AcDbSymbolTable
70
2
0
LAYER
5
50
100
AcDbSymbolTableRecord
100
AcDbLayerTableRecord
2
0
70
0
6
CONTINUOUS
0
ENDTAB
0
TABLE
2
STYLE
5
3
100
AcDbSymbolTable
70
1
0
STYLE
5
11
100
AcDbSymbolTableRecord
100
AcDbTextStyleTableRecord
2
STANDARD
70
0
0
ENDTAB
0
TABLE
2
VIEW
5
6
100
AcDbSymbolTable
70
0
0
ENDTAB
0
TABLE
2
UCS
5
7
100
AcDbSymbolTable
70
0
0
ENDTAB
0
TABLE
2
APPID
5
9
100
AcDbSymbolTable
70
2
0
APPID
5
12
100
AcDbSymbolTableRecord
100
AcDbRegAppTableRecord
2
ACAD
70
0
0
ENDTAB
0
TABLE
2
DIMSTYLE
5
A
100
AcDbSymbolTable
70
1
0
ENDTAB
0
TABLE
2
BLOCK_RECORD
5
1
100
AcDbSymbolTable
70
1
0
BLOCK_RECORD
5
1F
100
AcDbSymbolTableRecord
100
AcDbBlockTableRecord
2
*MODEL_SPACE
0
BLOCK_RECORD
5
1B
100
AcDbSymbolTableRecord
100
AcDbBlockTableRecord
2
*PAPER_SPACE
0
ENDTAB
0
ENDSEC
0
SECTION
2
BLOCKS
0
BLOCK
5
20
100
AcDbEntity
100
AcDbBlockBegin
2
*MODEL_SPACE
0
ENDBLK
5
21
100
AcDbEntity
100
AcDbBlockEnd
0
BLOCK
5
1C
100
AcDbEntity
100
AcDbBlockBegin
2
*PAPER_SPACE
0
ENDBLK
5
1D
100
AcDbEntity
100
AcDbBlockEnd
0
ENDSEC
0
SECTION
2
ENTITIES
0
CIRCLE
5
100
100
AcDbEntity
8
0
100
AcDbCircle
10
85.302037474339983
20
-127.59819960116425
30
0
40
1.6000000000000014
210
0
220
-0
230
1
0
CIRCLE
5
101
100
AcDbEntity
8
0
100
AcDbCircle
10
69.489994141639428
20
-181.57432189667603
30
0
40
1.6000000000000014
210
0
220
-0
230
1
0
CIRCLE
5
102
100
AcDbEntity
8
0
100
AcDbCircle
10
75.890078479029896
20
-210.37470141493316
30
0
40
1.6000000000000014
210
0
220
-0
230
1
0
CIRCLE
5
103
100
AcDbEntity
8
0
100
AcDbCircle
10
101.06682778826735
20
-170.22941407858653
30
0
40
1.6000000000000014
210
0
220
-0
230
1
0
CIRCLE
5
104
100
AcDbEntity
8
0
100
AcDbCircle
10
56.377955050791861
20
-181.57432189667611
30
0
40
1.5999999999999925
210
0
220
-0
230
1
0
CIRCLE
5
105
100
AcDbEntity
8
0
100
AcDbCircle
10
49.977870713401416
20
-210.37470141493316
30
0
40
1.6000000000000014
210
0
220
-0
230
1
0
LWPOLYLINE
5
106
100
AcDbEntity
8
0
100
AcDbPolyline
90
18
70
1
43
0.0
10
-42.466025403784414
20
-150.47451165580563
10
-42.4660254037844
20
-92.474511655805657
10
41.466025403784421
20
-92.474511655805628
10
46.466025403785935
20
-92.474511655804591
10
99.166906374596437
20
-122.9013794708336
42
-0.19891236737964299
10
100.09875802717457
20
-124.11579218819742
10
114.22659914913126
20
-176.84161305660072
10
119.43397459621565
20
-223.47451165580463
10
119.43397459621568
20
-225.97451165580463
10
116.93397459621566
20
-228.47451165580458
10
11.933974596215666
20
-228.47451165580463
10
9.4339745962156663
20
-225.97451165580463
10
9.4339745962156627
20
-205.87451165580458
42
0.41421356237309398
10
-23.166025403784371
20
-173.27451165580453
10
-40.766025403784411
20
-173.27451165580456
10
-41.266025403784411
20
-172.77451165580453
10
-41.266025403784411
20
-152.4745116558056
42
0.99999999999999989
10
-41.266025403784411
20
-150.47451165580563
0
LWPOLYLINE
5
107
100
AcDbEntity
8
0
100
AcDbPolyline
90
6
70
1
43
0.0
10
-42.4660254037844
20
-90.212564945220976
10
-42.4660254037844
20
90.212564945220976
10
41.849627776838005
20
90.212564945220976
42
0.16758279380296004
10
42.4660254037844
20
89.999999999999986
10
42.4660254037844
20
-89.999999999999986
42
0.16758279380290772
10
41.849627776838005
20
-90.212564945220976
0
LINE
5
108
100
AcDbEntity
8
0
100
AcDbLine
10
90.294780521764693
20
-18.499999999999996
30
0
11
90.294780521764693
21
-38.5
31
0
0
ELLIPSE
5
109
100
AcDbEntity
8
0
100
AcDbEllipse
10
84.521277829868353
20
-38.5
30
0
11
-5.7735026918963142
21
0
31
0.0
40
0.86602540378443016
41
0
42
3.1415926535897931
0
LINE
5
110
100
AcDbEntity
8
0
100
AcDbLine
10
78.747775137972042
20
-38.5
30
0
11
78.747775137972056
21
-18.499999999999996
31
0
0
ELLIPSE
5
111
100
AcDbEntity
8
0
100
AcDbEllipse
10
84.521277829868353
20
-18.499999999999996
30
0
11
5.7735026918963142
21
0
31
0.0
40
0.86602540378443016
41
6.2831853071795862
42
9.4247779607693793
0
ELLIPSE
5
112
100
AcDbEntity
8
0
100
AcDbEllipse
10
84.521277829868353
20
-3.4999999999999964
30
0
11
1.8475208614068206
21
0
31
0.0
40
0.86602540378443005
41
0
42
6.2831853071795862
0
ELLIPSE
5
113
100
AcDbEntity
8
0
100
AcDbEllipse
10
84.521277829868353
20
-53.5
30
0
11
1.8475208614068221
21
0
31
0.0
40
0.86602540378443016
41
0
42
6.2831853071795862
0
LWPOLYLINE
5
114
100
AcDbEntity
8
0
100
AcDbPolyline
90
10
70
1
43
0.0
10
86.22000764064596
20
-89
10
86.220007640645946
20
-89.999999999999986
10
43.220007640645974
20
-89.999999999999986
10
43.220007640645974
20
90.000000000000014
10
86.220007640645946
20
90
10
86.22000764064596
20
89.000000000000057
42
0.99999999999999989
10
88.220007640645974
20
89.000000000000057
10
107.53784488584182
20
89.000000000000043
10
107.53784488584182
20
-89
10
88.22000764064596
20
-89
42
0.99999999999999989
0
LINE
5
115
100
AcDbEntity
8
0
100
AcDbLine
10
119.91059185570191
20
-27.499999299645435
30
0
11
119.91059185570191
21
25.999999999999996
31
0
0
ELLIPSE
5
116
100
AcDbEntity
8
0
100
AcDbEllipse
10
125.08697275775233
20
25.999999999999996
30
0
11
-5.1763809020504157
21
0
31
0.0
40
0.96592582628906809
41
4.7123889803846897
42
6.2831853071795862
0
LINE
5
117
100
AcDbEntity
8
0
100
AcDbLine
10
125.08697275775233
20
30.999999999999996
30
0
11
140.61611546390361
21
30.999999999999996
31
0
0
ELLIPSE
5
118
100
AcDbEntity
8
0
100
AcDbEllipse
10
140.61611546390361
20
25.999999999999996
30
0
11
5.1763809020504157
21
0
31
0.0
40
0.96592582628906809
41
0
42
1.5707963267948966
0
LINE
5
119
100
AcDbEntity
8
0
100
AcDbLine
10
145.79249636595401
20
25.999999999999996
30
0
11
145.79249636595398
21
-27.499999299645435
31
0
0
ELLIPSE
5
120
100
AcDbEntity
8
0
100
AcDbEllipse
10
140.61611546390361
20
-27.499999299645435
30
0
11
5.1763809020504157
21
0
31
0.0
40
0.96592582628906809
41
4.7123889803846897
42
6.2831853071795871
0
LINE
5
121
100
AcDbEntity
8
0
100
AcDbLine
10
140.61611546390361
20
-32.499999299645438
30
0
11
125.08697275775233
21
-32.499999299645438
31
0
0
ELLIPSE
5
122
100
AcDbEntity
8
0
100
AcDbEllipse
10
125.08697275775233
20
-27.499999299645435
30
0
11
-5.1763809020504157
21
0
31
0.0
40
0.96592582628906809
41
6.2831853071795853
42
7.8539816339744828
0
LWPOLYLINE
5
123
100
AcDbEntity
8
0
100
AcDbPolyline
90
8
70
1
43
0.0
10
141.66881824113392
20
-89
10
108.66881824113395
20
-88.999999999999986
10
108.66881824113395
20
89.000000000000057
10
141.66881824113395
20
89.000000000000071
42
0.99999999999999989
10
143.66881824113392
20
89.000000000000057
10
163.25460467876087
20
89.000000000000043
10
163.25460467876087
20
-89
10
143.66881824113395
20
-89
42
0.99999999999999989
0
LWPOLYLINE
5
124
100
AcDbEntity
8
0
100
AcDbPolyline
90
18
70
1
43
0.0
10
-42.4660254037844
20
92.474511655805628
10
-42.466025403784393
20
150.4745116558056
10
-41.266025403784369
20
150.4745116558056
42
0.99999999999999989
10
-41.266025403784369
20
152.47451165580563
10
-41.266025403784369
20
172.77451165580555
10
-40.76602540378439
20
173.27451165580555
10
-23.166025403784371
20
173.27451165580555
42
0.41421356237309503
10
9.4339745962156663
20
205.87451165580561
10
9.4339745962156663
20
225.97451165580563
10
11.933974596215666
20
228.4745116558056
10
116.93397459621566
20
228.47451165580563
10
119.43397459621568
20
225.97451165580563
10
119.43397459621565
20
223.4745116558056
10
114.22659914913126
20
176.84161305660177
10
100.09875802717454
20
124.11579218819841
42
-0.19891236737965062
10
99.166906374596451
20
122.90137947083463
10
46.466025403785949
20
92.474511655805628
10
41.466025403784421
20
92.474511655805628
0
CIRCLE
5
125
100
AcDbEntity
8
0
100
AcDbCircle
10
85.302037474339983
20
127.59819960116528
30
0
40
1.6000000000000014
210
0
220
0
230
1
0
CIRCLE
5
126
100
AcDbEntity
8
0
100
AcDbCircle
10
101.06682778826735
20
170.22941407858752
30
0
40
1.6000000000000014
210
0
220
0
230
1
0
CIRCLE
5
127
100
AcDbEntity
8
0
100
AcDbCircle
10
49.977870713401416
20
210.37470141493415
30
0
40
1.6000000000000014
210
0
220
-0
230
1
0
CIRCLE
5
128
100
AcDbEntity
8
0
100
AcDbCircle
10
75.890078479029896
20
210.37470141493415
30
0
40
1.6000000000000014
210
0
220
-0
230
1
0
CIRCLE
5
129
100
AcDbEntity
8
0
100
AcDbCircle
10
56.377955050791861
20
181.57432189667713
30
0
40
1.5999999999999925
210
0
220
-0
230
1
0
CIRCLE
5
130
100
AcDbEntity
8
0
100
AcDbCircle
10
69.489994141639428
20
181.57432189667702
30
0
40
1.6000000000000014
210
0
220
-0
230
1
0
LWPOLYLINE
5
131
100
AcDbEntity
8
0
100
AcDbPolyline
90
14
70
1
43
0.0
10
-123.02797211436913
20
87.712564945220947
42
-0.41421356237310125
10
-120.52797211436913
20
90.212564945220976
10
-44.727972114369067
20
90.212564945220933
10
-44.727972114369067
20
-90.212564945221047
10
-120.52797211436811
20
-90.212564945221047
42
-0.41421356237309503
10
-123.02797211436814
20
-87.712564945221075
10
-123.02797211436868
20
-38.745294089089924
10
-125.52797211436841
20
-36.245294089089924
10
-135.22797211436907
20
-36.245294089089924
10
-137.72797211436907
20
-33.745294089089924
10
-137.72797211436907
20
33.712564945220969
10
-135.22797211436907
20
36.212564945220969
10
-125.52797211436842
20
36.212564945220969
10
-123.02797211436885
20
38.712564945220969
0
CIRCLE
5
132
100
AcDbEntity
8
0
100
AcDbCircle
10
-113.87797211436873
20
-81.212564945221374
30
0
40
1.6000000000000014
210
0
220
-0
230
1
0
CIRCLE
5
133
100
AcDbEntity
8
0
100
AcDbCircle
10
-113.87797211436921
20
81.212564945221402
30
0
40
1.6000000000000014
210
0
220
-0
230
1
0
LINE
5
134
100
AcDbEntity
8
0
100
AcDbLine
10
-43.527972114369042
20
170.77451165580558
30
0
11
-56.527972114369113
21
170.77451165580555
31
0
0
CIRCLE
5
135
100
AcDbEntity
8
0
100
AcDbCircle
10
-52.527972114369035
20
161.62451165580569
30
0
40
1.6000000000000014
210
0
220
-0
230
1
0
LWPOLYLINE
5
136
100
AcDbEntity
8
0
100
AcDbPolyline
90
6
70
1
43
0.0
10
-61.527972114369113
20
165.77451165580555
42
-0.41421356237309503
10
-56.527972114369113
20
170.77451165580555
10
-43.527972114369042
20
170.77451165580558
10
-43.527972114369042
20
152.4745116558056
10
-56.527972114369113
20
152.4745116558056
42
-0.41421356237309609
10
-61.527972114369106
20
157.47451165580563
0
CIRCLE
5
137
100
AcDbEntity
8
0
100
AcDbCircle
10
97.878926263243955
20
100.26194671058454
30
0
40
1.6000000000000012
210
0
220
-0
230
1
0
LWPOLYLINE
5
138
100
AcDbEntity
8
0
100
AcDbPolyline
90
6
70
1
43
0.0
10
88.220007640645974
20
104.26194671058455
42
-0.41421356237309609
10
93.220007640645989
20
109.26194671058455
10
102.53784488584195
20
109.26194671058438
42
-0.41421356237309293
10
107.53784488584176
20
104.26194671058455
10
107.53784488584176
20
91.261946710584539
10
88.220007640645974
20
91.26194671058451
0
CIRCLE
5
139
100
AcDbEntity
8
0
100
AcDbCircle
10
153.46171145994737
20
100.26194671058478
30
0
40
1.6000000000000014
210
0
220
-0
230
1
0
LWPOLYLINE
5
140
100
AcDbEntity
8
0
100
AcDbPolyline
90
6
70
1
43
0.0
10
143.66881824113389
20
104.26194671058484
42
-0.41421356237309709
10
148.66881824113392
20
109.26194671058485
10
158.25460467876087
20
109.26194671058485
42
-0.41421356237309193
10
163.25460467876087
20
104.26194671058484
10
163.25460467876087
20
91.261946710584738
10
143.66881824113392
20
91.261946710584766
0
LWPOLYLINE
5
141
100
AcDbEntity
8
0
100
AcDbPolyline
90
6
70
1
43
0.0
10
93.220007640645477
20
-109.26194671058445
42
-0.4142135623730992
10
88.220007640645477
20
-104.26194671058445
10
88.220007640645989
20
-91.261946710584795
10
107.53784488584189
20
-91.261946710584795
10
107.53784488584138
20
-104.26194671058445
42
-0.41421356237309814
10
102.53784488584139
20
-109.26194671058445
0
CIRCLE
5
142
100
AcDbEntity
8
0
100
AcDbCircle
10
97.878926263243429
20
-100.26194671058443
30
0
40
1.6000000000000012
210
-0
220
0
230
1
0
LWPOLYLINE
5
143
100
AcDbEntity
8
0
100
AcDbPolyline
90
6
70
1
43
0.0
10
148.66881824113329
20
-109.26194671058494
42
-0.4142135623730992
10
143.66881824113327
20
-104.26194671058491
10
143.66881824113395
20
-91.261946710584766
10
163.25460467876093
20
-91.261946710584766
10
163.25460467876024
20
-104.26194671058491
42
-0.41421356237309503
10
158.25460467876024
20
-109.26194671058491
0
CIRCLE
5
144
100
AcDbEntity
8
0
100
AcDbCircle
10
153.46171145994674
20
-100.26194671058485
30
0
40
1.6000000000000014
210
-0
220
0
230
1
0
CIRCLE
5
145
100
AcDbEntity
8
0
100
AcDbCircle
10
-52.527972114369121
20
-161.62451165580521
30
0
40
1.6000000000000014
210
0
220
-0
230
1
0
LWPOLYLINE
5
146
100
AcDbEntity
8
0
100
AcDbPolyline
90
6
70
1
43
0.0
10
-56.527972114369156
20
-170.77451165580467
42
-0.41421356237309453
10
-61.527972114369177
20
-165.77451165580464
10
-61.52797211436922
20
-157.47451165580566
42
-0.41421356237309348
10
-56.527972114369192
20
-152.47451165580563
10
-43.527972114369135
20
-152.4745116558056
10
-43.527972114369135
20
-170.77451165580456
0
LWPOLYLINE
5
147
100
AcDbEntity
8
0
100
AcDbPolyline
90
4
70
1
43
0.0
10
-43.527972114369135
20
-170.77451165580456
10
-43.527972114369135
20
-152.4745116558056
10
-41.266025403784411
20
-152.4745116558056
10
-41.266025403784411
20
-172.77451165580456
0
LWPOLYLINE
5
148
100
AcDbEntity
8
0
100
AcDbPolyline
90
4
70
1
43
0.0
10
-42.466025403784407
20
-92.474511655805657
10
-42.4660254037844
20
-90.212564945220976
10
41.849627776838005
20
-90.212564945220976
10
41.466025403784414
20
-92.474511655805628
0
LWPOLYLINE
5
149
100
AcDbEntity
8
0
100
AcDbPolyline
90
4
70
1
43
0.0
10
-44.727972114369067
20
-90.212564945221047
10
-44.727972114369067
20
90.212564945220933
10
-42.4660254037844
20
90.212564945220976
10
-42.4660254037844
20
-90.212564945220976
0
LWPOLYLINE
5
150
100
AcDbEntity
8
0
100
AcDbPolyline
90
4
70
1
43
0.0
10
43.220007640645974
20
90.000000000000014
10
43.220007640645974
20
-89.999999999999986
10
42.4660254037844
20
-90
10
42.4660254037844
20
90
0
LWPOLYLINE
5
151
100
AcDbEntity
8
0
100
AcDbPolyline
90
4
70
1
43
0.0
10
107.53784488584189
20
-91.261946710584795
10
88.220007640645989
20
-91.261946710584795
10
88.220007640645974
20
-89
10
107.53784488584182
20
-89
0
LWPOLYLINE
5
152
100
AcDbEntity
8
0
100
AcDbPolyline
90
4
70
1
43
0.0
10
108.66881824113395
20
-89
10
107.53784488584182
20
-88.999999999999986
10
107.53784488584182
20
89.000000000000057
10
108.66881824113395
20
89.000000000000043
0
LWPOLYLINE
5
153
100
AcDbEntity
8
0
100
AcDbPolyline
90
4
70
1
43
0.0
10
163.25460467876093
20
-91.261946710584766
10
143.66881824113395
20
-91.261946710584766
10
143.66881824113392
20
-89
10
163.25460467876087
20
-89
0
LWPOLYLINE
5
154
100
AcDbEntity
8
0
100
AcDbPolyline
90
4
70
1
43
0.0
10
-42.4660254037844
20
90.212564945220976
10
-42.4660254037844
20
92.474511655805628
10
41.466025403784421
20
92.474511655805628
10
41.849627776838005
20
90.212564945220976
0
LWPOLYLINE
5
155
100
AcDbEntity
8
0
100
AcDbPolyline
90
4
70
1
43
0.0
10
88.220007640645974
20
91.26194671058451
10
107.53784488584176
20
91.261946710584539
10
107.53784488584182
20
89.000000000000057
10
88.220007640645974
20
89.000000000000057
0
LWPOLYLINE
5
156
100
AcDbEntity
8
0
100
AcDbPolyline
90
4
70
1
43
0.0
10
143.66881824113392
20
91.261946710584766
10
163.25460467876087
20
91.261946710584738
10
163.25460467876087
20
89.000000000000057
10
143.66881824113392
20
89.000000000000057
0
LWPOLYLINE
5
157
100
AcDbEntity
8
0
100
AcDbPolyline
90
4
70
1
43
0.0
10
-43.527972114369042
20
152.4745116558056
10
-43.527972114369042
20
170.77451165580558
10
-41.266025403784369
20
172.77451165580558
10
-41.266025403784369
20
152.4745116558056
0
ENDSEC
0
SECTION
2
OBJECTS
0
DICTIONARY
5
C
100
AcDbDictionary
3
ACAD_GROUP
350
D
3
ACAD_MLINESTYLE
350
17
0
DICTIONARY
5
D
100
AcDbDictionary
0
DICTIONARY
5
1A
330
C
100
AcDbDictionary
0
DICTIONARY
5
17
100
AcDbDictionary
0
ENDSEC
0
EOF
